<?xml version="1.0" encoding="utf-8"?>
<!-- Generator: Adobe Illustrator 24.3.0, SVG Export Plug-In . SVG Version: 6.00 Build 0)  -->
<svg version="1.1" id="Capa_1" xmlns="http://www.w3.org/2000/svg" xmlns:xlink="http://www.w3.org/1999/xlink" x="0px" y="0px"
	 viewBox="0 0 32 32" style="enable-background:new 0 0 32 32;" xml:space="preserve">
<style type="text/css">
	.st0{fill:#FFFFFF;}
</style>
<g>
	<g>
		<circle class="st0" cx="16" cy="7.8" r="1"/>
		<rect x="14.6" y="25.6" class="st0" width="2.2" height="0.8"/>
		<rect x="14.6" y="26.8" class="st0" width="2.2" height="0.8"/>
		<rect x="14.6" y="28" class="st0" width="2.2" height="0.8"/>
		<path class="st0" d="M16.8,29.9v-0.7h-2.2v0.7c-0.7,0.4-1.2,1.2-1.2,2.1c3.5,0,2.3,0,4.7,0C18,31.1,17.5,30.3,16.8,29.9z"/>
		<rect x="19.7" y="25.6" class="st0" width="2.2" height="0.8"/>
		<rect x="19.7" y="26.8" class="st0" width="2.2" height="0.8"/>
		<rect x="19.7" y="28" class="st0" width="2.2" height="0.8"/>
		<path class="st0" d="M21.9,29.9v-0.7h-2.2v0.7c-0.7,0.4-1.2,1.2-1.2,2.1c3.5,0,2.3,0,4.7,0C23.1,31.1,22.6,30.3,21.9,29.9z"/>
		<circle class="st0" cx="20.4" cy="7.8" r="1"/>
		<path class="st0" d="M28,22L28,22l-4.1-8.2l0,0v0h-3.2v-2h2.2V5.2h-2.7V3.8h-1.8V1h0.4V0h-0.5h-0.5v1H18v2.8h-1.8v1.4h-2.7v6.6
			h2.2v2h-3.2l-2.5,3l-4.4-4v-1.6H4.8v2.3H2.6v0.9h1.8l5.9,5.4l2.2-2.7v6.6h2v1.5h2.2v-1.5h2.9v1.5h2.2v-1.5h2v-5.4l2.2,4.3
			l-0.7,1.6l0.8,0.3l0.9-2.1l2.1,0.9l0.3-0.8L28,22z M22,7.8c0,0.9-0.7,1.6-1.6,1.6s-1.6-0.7-1.6-1.6s0.7-1.6,1.6-1.6S22,6.9,22,7.8
			z M14.4,7.8c0-0.9,0.7-1.6,1.6-1.6s1.6,0.7,1.6,1.6S17,9.5,16,9.5S14.4,8.8,14.4,7.8z M19.1,21.4h-4.9v-1.3h4.9V21.4z M19.1,19.4
			h-4.9v-1.3h4.9V19.4z M19.1,17.3h-4.9V16h4.9V17.3z M18.2,10.8h-1.8v-0.6h1.8H20v0.6H18.2z M22.2,21.4h-2.4v-1.3h2.4V21.4z
			 M22.2,19.4h-2.4v-1.3h2.4V19.4z M22.2,17.3h-2.4V16h2.4V17.3z"/>
	</g>
</g>
</svg>
